<?xml version="1.0" encoding="utf-8"?>
<!-- Generator: Adobe Illustrator 25.1.0, SVG Export Plug-In . SVG Version: 6.00 Build 0)  -->
<svg version="1.1" id="Layer_1" xmlns="http://www.w3.org/2000/svg" xmlns:xlink="http://www.w3.org/1999/xlink" x="0px" y="0px"
	 viewBox="0 0 630 630" style="enable-background:new 0 0 630 630;" xml:space="preserve">
<style type="text/css">
	.st0{fill:#0D6EFD;}
	.st1{fill:#FFFFFF;}
</style>
<rect class="st0" width="630" height="630"/>
<path class="st1" d="M212,497c11,17,20,31,40,31c19,0,32-8,32-37V290h59v202c0,61-36,89-88,89c-47,0-75-25-89-54"/>
<path class="st1" d="M423,492c13,21,29,36,58,36c25,0,40-12,40-29c0-20-16-27-43-39l-15-6c-43-18-71-41-71-89c0-44,34-78,87-78
	c38,0,65,13,84,47l-46,30c-10-18-21-25-38-25s-28,11-28,25c0,18,11,25,36,36l15,6c50,22,79,44,79,93c0,53-42,82-98,82
	c-55,0-91-26-108-60"/>
</svg>
